<svg xmlns="http://www.w3.org/2000/svg" xmlns:xlink="http://www.w3.org/1999/xlink" width="500" zoomAndPan="magnify" viewBox="0 0 375 374.999991" height="500" preserveAspectRatio="xMidYMid meet" version="1.0"><path fill="#f34213" d="M 109.851562 95.566406 L 187.527344 173.242188 L 265.148438 95.566406 L 266.976562 93.742188 C 288.414062 72.300781 288.414062 37.507812 266.976562 16.066406 C 256.230469 5.320312 242.195312 0 228.164062 0 C 214.128906 0 200.097656 5.320312 189.351562 16.066406 L 187.523438 17.945312 L 185.648438 16.066406 C 174.953125 5.320312 160.867188 0 146.835938 0 C 132.804688 0 118.71875 5.320312 108.023438 16.066406 C 86.585938 37.507812 86.585938 72.300781 108.023438 93.742188 Z M 109.851562 95.566406 " fill-opacity="1" fill-rule="nonzero"/><path fill="#f34213" d="M 265.148438 279.433594 L 187.472656 201.757812 L 109.851562 279.433594 L 108.023438 281.257812 C 86.585938 302.699219 86.585938 337.492188 108.023438 358.933594 C 118.773438 369.679688 132.804688 375 146.835938 375 C 160.871094 375 174.902344 369.679688 185.648438 358.933594 L 187.476562 357.054688 L 189.351562 358.933594 C 200.046875 369.679688 214.132812 375 228.164062 375 C 242.195312 375 256.28125 369.679688 266.976562 358.933594 C 288.414062 337.492188 288.414062 302.699219 266.976562 281.257812 Z M 265.148438 279.433594 " fill-opacity="1" fill-rule="nonzero"/><path fill="#f34213" d="M 375 146.835938 C 375 132.804688 369.679688 118.71875 358.933594 108.023438 C 337.492188 86.585938 302.699219 86.585938 281.257812 108.023438 L 279.433594 109.851562 L 201.757812 187.527344 L 279.433594 265.148438 L 281.257812 266.976562 C 302.699219 288.414062 337.492188 288.414062 358.933594 266.976562 C 369.679688 256.226562 375 242.195312 375 228.164062 C 375 214.128906 369.679688 200.097656 358.933594 189.351562 L 357.054688 187.523438 L 358.933594 185.648438 C 369.679688 174.953125 375 160.867188 375 146.835938 Z M 375 146.835938 " fill-opacity="1" fill-rule="nonzero"/><path fill="#f34213" d="M 0 228.164062 C 0 242.195312 5.320312 256.28125 16.066406 266.976562 C 37.507812 288.414062 72.300781 288.414062 93.742188 266.976562 L 95.566406 265.148438 L 173.242188 187.472656 L 95.566406 109.851562 L 93.742188 108.023438 C 72.300781 86.585938 37.507812 86.585938 16.066406 108.023438 C 5.320312 118.773438 0 132.804688 0 146.835938 C 0 160.871094 5.320312 174.902344 16.066406 185.648438 L 17.945312 187.476562 L 16.066406 189.351562 C 5.320312 200.046875 0 214.128906 0 228.164062 Z M 0 228.164062 " fill-opacity="1" fill-rule="nonzero"/></svg>